<?xml version="1.0"?>
<svg xmlns="http://www.w3.org/2000/svg" xmlns:xlink="http://www.w3.org/1999/xlink" version="1.1" id="Layer_1" x="0px" y="0px" viewBox="0 0 511.997 511.997" style="enable-background:new 0 0 511.997 511.997;" xml:space="preserve" width="512px" height="512px" class=""><g><path style="fill:#4B4B4B" d="M473.629,208.177c-20.405-19.169-146.549-14.063-198.621,24.489  c-5.564-1.909-11.992-2.969-19.007-2.969s-13.444,1.059-19.007,2.969c-52.072-38.552-178.216-43.658-198.62-24.489  c-6.617,140.932,193.102,192.481,207.709,54.225c1.759-0.716,5.082-1.64,9.919-1.64s8.16,0.925,9.919,1.64  C280.527,400.658,480.246,349.109,473.629,208.177z" data-original="#FFA6BB" class="active-path" data-old_color="#FFA6BB"/><g style="opacity:0.1;">
	<path d="M59.082,218.532c17.355-16.303,111.191-15.04,170.896,9.418c-55.567-34.22-172.065-38.13-191.606-19.773   c-3,63.892,36.408,109.412,81.75,127.206C84.196,313.247,56.553,272.425,59.082,218.532z" data-original="#000000" class=""/>
</g><g>
	<path style="fill:#FFFFFF" d="M162.254,312.597c-23.274-0.001-48.751-11.551-66.489-30.143   c-10.326-10.822-22.009-28.056-25.473-52.643c6.056-0.795,14.251-1.412,24.859-1.412c47.206,0,96.222,11.35,120.087,26.908   l-0.165,4.873c-4.973,43.291-31.415,52.418-52.816,52.418L162.254,312.597L162.254,312.597z" data-original="#855D7A" class="" data-old_color="#855D7A"/>
	<path style="fill:#FFFFFF" d="M349.747,312.597c23.274-0.001,48.751-11.551,66.489-30.143   c10.326-10.822,22.009-28.056,25.473-52.643c-6.056-0.795-14.251-1.412-24.859-1.412c-47.206,0-96.222,11.35-120.087,26.908   l0.165,4.873c4.973,43.291,31.415,52.418,52.816,52.418L349.747,312.597L349.747,312.597z" data-original="#855D7A" class="" data-old_color="#855D7A"/>
</g><g>
	<polygon style="fill:#FFD782" points="49.249,168.337 51.682,191.575 72.203,202.745 50.854,212.239 46.572,235.209    30.946,217.838 7.778,220.864 19.469,200.635 9.432,179.536 32.284,184.402  " data-original="#FFD782" class="" data-old_color="#FFD782"/>
	<polygon style="fill:#FFD782" points="462.753,168.337 460.321,191.575 439.799,202.745 461.147,212.239 465.429,235.209    481.057,217.838 504.225,220.864 492.533,200.635 502.57,179.536 479.718,184.402  " data-original="#FFD782" class="" data-old_color="#FFD782"/>
</g><path d="M69.271,222.111c-2.054,0.269-3.916,1.349-5.171,2.999c-1.254,1.65-1.798,3.732-1.509,5.784  c3.831,27.201,17.093,45.967,27.544,56.921c19.153,20.076,46.783,32.548,72.107,32.549h0.003c20.063,0,54.604-7.703,60.532-59.297  c0.024-0.207,0.039-0.415,0.047-0.624l0.165-4.873c0.091-2.717-1.244-5.283-3.521-6.768c-25.44-16.585-76.565-28.169-124.328-28.169  C85.451,220.632,76.748,221.129,69.271,222.111z M207.313,259.599c-3.538,30.016-18.699,45.232-45.066,45.232v7.766l-0.003-7.766  c-21.223-0.001-44.548-10.629-60.87-27.739c-7.82-8.196-17.493-21.543-21.913-40.402c4.803-0.35,10.048-0.527,15.68-0.527  c42.781,0,87.902,9.514,112.173,23.407L207.313,259.599z" data-original="#000000" class=""/><path d="M400.176,286.429c-3.405,2.609-4.049,7.485-1.439,10.888c2.609,3.405,7.485,4.049,10.888,1.439  c4.398-3.371,8.51-7.052,12.221-10.942c10.451-10.953,23.713-29.721,27.544-56.921c0.289-2.052-0.255-4.135-1.509-5.784  c-1.254-1.65-3.116-2.73-5.171-2.999c-7.475-0.982-16.18-1.479-25.87-1.479c-47.762,0-98.888,11.584-124.328,28.169  c-2.277,1.485-3.612,4.051-3.521,6.768l0.165,4.873c0.007,0.209,0.023,0.417,0.047,0.624c5.927,51.594,40.47,59.297,60.535,59.297  c9.467,0,19.24-1.694,29.05-5.037c4.06-1.382,6.231-5.796,4.847-9.856c-1.383-4.06-5.796-6.234-9.856-4.846  c-8.193,2.791-16.281,4.206-24.043,4.206c-26.367,0-41.527-15.217-45.066-45.232l-0.001-0.027  c24.271-13.893,69.391-23.407,112.173-23.407c5.632,0,10.877,0.177,15.68,0.527c-4.421,18.858-14.093,32.206-21.913,40.402  C407.447,280.405,403.939,283.545,400.176,286.429z" data-original="#000000" class=""/><path d="M501.29,200.285l8.283-17.412c1.27-2.67,0.914-5.828-0.917-8.148c-1.832-2.32-4.822-3.398-7.713-2.783l-18.859,4.017  L468.082,162.7c-2.147-2.032-5.26-2.671-8.033-1.645c-2.772,1.025-4.723,3.536-5.03,6.476l-2.008,19.177l-8.068,4.392  c-44.438-5.31-127.697,3.315-171.336,33.035c-5.486-1.462-11.392-2.2-17.617-2.2c-6.223,0-12.131,0.739-17.617,2.2  c-27.282-18.579-67.156-26.925-89.022-30.29c-4.239-0.657-8.205,2.255-8.858,6.494c-0.653,4.239,2.254,8.204,6.494,8.858  c36.828,5.67,67.148,16.223,85.373,29.715c2.053,1.521,4.725,1.933,7.142,1.104c4.928-1.691,10.475-2.548,16.486-2.548  c6.011,0,11.558,0.857,16.486,2.548c2.417,0.828,5.088,0.416,7.142-1.104c24.328-18.012,91.904-37.987,152.894-33.446  c0.711,1.9,2.263,3.553,4.12,4.379l17.618,7.835l3.533,18.956c0.514,2.759,2.589,5.115,5.26,5.972  c-6.74,30.525-23.668,51.037-37.783,63.429c-21.273,18.676-48.409,29.558-74.448,29.855c-0.381,0.004-0.759,0.006-1.138,0.006  c-42.725,0-71.118-27.7-76.043-74.308c-0.3-2.848-2.143-5.299-4.796-6.378c-2.481-1.01-6.723-2.213-12.845-2.213  c-6.123,0-10.365,1.203-12.846,2.213c-2.652,1.079-4.495,3.53-4.796,6.378c-4.967,47.02-33.822,74.816-77.18,74.301  c-26.039-0.297-53.176-11.179-74.448-29.855c-14.116-12.392-31.043-32.904-37.783-63.429c0.008,0.039,1.814-0.857,1.961-0.962  c1.447-1.024,3.299-3.086,3.299-5.01l3.534-18.956l17.618-7.835c1.158-0.515,2.206-1.339,2.974-2.348  c0.173-0.228,0.968-1.91,1.104-1.919c11.198-0.696,23.976-0.613,37.163,0.267c4.288,0.291,7.981-2.952,8.266-7.232  c0.286-4.28-2.952-7.981-7.231-8.266c-18.75-1.252-36.166-0.989-50.589,0.752l-8.064-4.389l-2.008-19.177  c-0.308-2.94-2.258-5.451-5.03-6.476c-2.773-1.024-5.887-0.387-8.033,1.645l-14.001,13.258l-18.859-4.017  c-2.891-0.614-5.882,0.463-7.712,2.783c-1.833,2.321-2.188,5.48-0.918,8.148l8.283,17.412l-9.648,16.694  c-1.479,2.56-1.377,5.738,0.263,8.196c1.64,2.459,4.532,3.772,7.466,3.391l19.119-2.498l3.295,3.663  c3.483,34.176,19.494,65.333,45.284,87.974c24.019,21.087,54.825,33.375,84.519,33.715c39.195,0.456,83.295-21.194,92.125-82.742  c0.836-0.09,1.793-0.148,2.875-0.148c1.081,0,2.039,0.058,2.873,0.148c8.742,60.929,52.064,82.751,90.939,82.749  c0.395,0,0.794-0.002,1.187-0.006c29.694-0.34,60.5-12.628,84.519-33.715c25.79-22.641,41.801-53.798,45.284-87.973l3.296-3.664  l19.119,2.498c0.363,0.048,0.728,0.066,1.083,0.065c4.263-0.031,7.709-3.496,7.709-7.766c0-1.609-0.489-3.103-1.328-4.343  L501.29,200.285z M43.209,210.817l-1.398,7.5l-5.102-5.671c-1.483-1.648-3.587-2.572-5.773-2.572c-0.334,0-0.67,0.022-1.006,0.065  l-7.564,0.988l3.817-6.604c1.279-2.214,1.387-4.914,0.289-7.223l-3.277-6.889L30.657,192c2.501,0.532,5.102-0.199,6.957-1.957  l5.54-5.246l0.794,7.588c0.266,2.542,1.767,4.79,4.011,6.013l6.701,3.647l-6.97,3.1C45.353,206.183,43.678,208.304,43.209,210.817z   M482.052,210.138c-2.536-0.329-5.07,0.607-6.779,2.507l-5.102,5.671l-1.398-7.5c-0.468-2.513-2.143-4.634-4.479-5.673l-6.97-3.1  l6.7-3.647c2.245-1.222,3.745-3.471,4.011-6.013l0.794-7.588l5.539,5.246c1.857,1.757,4.458,2.488,6.957,1.957l7.462-1.589  l-3.277,6.889c-1.098,2.308-0.99,5.009,0.289,7.223l3.817,6.604L482.052,210.138z" data-original="#000000" class=""/></g> </svg>
