<?xml version="1.0"?>
<svg xmlns="http://www.w3.org/2000/svg" xmlns:xlink="http://www.w3.org/1999/xlink" version="1.1" id="Capa_1" x="0px" y="0px" viewBox="0 0 609.677 609.677" style="enable-background:new 0 0 609.677 609.677;" xml:space="preserve" width="512px" height="512px" class=""><g><g>
	<g>
		<g id="filled_outline_33_">
			<path style="fill:#5E6E7A" d="M203.228,193.059V355.64c39.304,0,77.266,14.266,106.846,40.147l35.412,30.982l35.412-30.982     c29.58-25.881,67.542-40.147,106.846-40.147V193.059H203.228z" data-original="#3E8CC7" class="" data-old_color="#3E8CC7"/>
			<circle style="fill:#FDB62F;" cx="391.212" cy="492.817" r="35.565" data-original="#FDB62F" class=""/>
			<circle style="fill:#FDB62F;" cx="492.825" cy="563.946" r="35.565" data-original="#FDB62F" class=""/>
			<path style="fill:#FDB62F;" d="M50.809,233.705L50.809,233.705c-3.475-20.841-19.804-37.17-40.645-40.645l0,0     c20.841-3.475,37.17-19.804,40.645-40.645l0,0c3.475,20.841,19.804,37.17,40.645,40.645l0,0     C70.613,196.535,54.284,212.864,50.809,233.705z" data-original="#FDB62F" class=""/>
			<polygon style="fill:#556B7A" points="345.486,10.156 91.454,132.691 345.486,274.35 599.519,132.092    " data-original="#4398D1" class="" data-old_color="#4398D1"/>
			<path style="fill:#126099;" d="M569.035,264.188h-20.323V161.559L351.41,140.871l2.124-20.211l206.355,21.644     c5.213,0.528,9.176,4.928,9.145,10.161V264.188z" data-original="#126099"/>
			<polygon style="fill:#FDB62F;" points="548.712,264.188 528.39,355.64 589.357,355.64 569.035,264.188    " data-original="#FDB62F" class=""/>
			<circle style="fill:#FFA230;" cx="502.986" cy="452.172" r="35.565" data-original="#FFA230"/>
			<path style="fill:#F6C65E" d="M329.015,562.717l-24.174-24.174v-91.452c-0.01-58.265-38.186-109.64-93.972-126.457     l33.004-63.457l-10.161-6.524c-12.671-8.058-28.604-9.013-42.149-2.52c-11.889,5.68-25.708,5.68-37.597,0     c-13.555-6.503-29.508-5.548-42.19,2.52l-10.161,6.524l33.004,63.457c-55.786,16.817-93.961,68.192-93.972,126.457v91.452     l-24.174,24.174c-8.414,8.414-8.424,22.06,0,30.484c4.044,4.034,9.521,6.31,15.242,6.31h282.057     c11.899,0,21.552-9.643,21.552-21.552C335.335,572.238,333.059,566.761,329.015,562.717z" data-original="#88B337" class="" data-old_color="#88B337"/>
			<path style="fill:#A88934" d="M329.015,562.717l-24.174-24.174v-91.452c0.03-39.223-17.416-76.413-47.595-101.46     C202.568,500.449,96.535,569.332,26.778,598.891c1.616,0.396,3.272,0.61,4.938,0.62h282.057c11.899,0,21.552-9.643,21.552-21.552     C335.335,572.238,333.059,566.761,329.015,562.717z" data-original="#80A834" class="active-path" data-old_color="#80A834"/>
			<path style="fill:#FFFFFF;" d="M182.906,447.092h-20.323c-5.609,0-10.161-4.552-10.161-10.161s4.552-10.161,10.161-10.161h40.645     v-20.323h-20.323v-20.323h-20.323v20.323c-16.837,0-30.484,13.647-30.484,30.484s13.647,30.484,30.484,30.484h20.323     c5.609,0,10.161,4.552,10.161,10.161c0,5.609-4.552,10.161-10.161,10.161h-40.645v20.323h20.323v20.323h20.323v-20.323     c16.837,0,30.484-13.647,30.484-30.484C213.39,460.738,199.743,447.092,182.906,447.092z" data-original="#FFFFFF"/>
			<circle style="fill:#DADDDF;" cx="345.486" cy="132.092" r="20.323" data-original="#DADDDF" class=""/>
			<path d="M391.212,447.092c-25.251,0-45.726,20.475-45.726,45.726c0,25.251,20.475,45.726,45.726,45.726     s45.726-20.475,45.726-45.726C436.908,467.567,416.453,447.112,391.212,447.092z M391.212,518.221     c-14.023,0-25.403-11.381-25.403-25.403c0-14.023,11.381-25.403,25.403-25.403s25.403,11.37,25.403,25.403     S405.245,518.221,391.212,518.221z" data-original="#000000" class="" style="fill:#000000" data-old_color="#000000"/>
			<path d="M492.825,518.221c-25.251,0-45.726,20.475-45.726,45.726c0,25.251,20.475,45.726,45.726,45.726     c25.251,0,45.726-20.475,45.726-45.726C538.52,538.696,518.066,518.241,492.825,518.221z M492.825,589.35     c-14.023,0-25.403-11.381-25.403-25.403s11.381-25.403,25.403-25.403c14.023,0,25.403,11.37,25.403,25.403     C518.228,577.979,506.858,589.35,492.825,589.35z" data-original="#000000" class="" style="fill:#000000" data-old_color="#000000"/>
			<path d="M8.497,203.078c16.563,2.764,29.529,15.74,32.293,32.303c0.935,5.538,6.178,9.257,11.716,8.322     c4.268-0.721,7.601-4.065,8.322-8.322c2.764-16.563,15.73-29.539,32.293-32.303c5.538-0.935,9.257-6.178,8.322-11.716     c-0.721-4.268-4.065-7.601-8.322-8.322c-16.563-2.764-29.529-15.74-32.293-32.303c-0.935-5.538-6.178-9.257-11.716-8.322     c-4.268,0.721-7.601,4.065-8.322,8.322c-2.764,16.563-15.73,29.539-32.293,32.303c-5.538,0.935-9.257,6.178-8.322,11.716     C0.897,199.014,4.24,202.357,8.497,203.078z M50.809,178.549c3.963,5.64,8.871,10.547,14.51,14.51     c-5.64,3.963-10.547,8.871-14.51,14.51c-3.963-5.64-8.871-10.547-14.51-14.51C41.938,189.096,46.846,184.189,50.809,178.549z" data-original="#000000" class="" style="fill:#000000" data-old_color="#000000"/>
			<path d="M603.919,122.946L349.886,1.011c-2.784-1.341-6.036-1.341-8.82,0L87.034,123.546c-5.05,2.439-7.174,8.515-4.735,13.565     c0.904,1.88,2.378,3.435,4.207,4.461l254.032,141.669c3.079,1.717,6.828,1.717,9.907,0l127.138-71.22v133.753     c-38.206,2.256-74.584,17.162-103.381,42.383l-28.716,25.109l-4.918-4.298l-13.382,15.242L338.8,434.37     c3.831,3.343,9.541,3.343,13.372,0l35.412-30.972c27.73-24.255,63.325-37.617,100.16-37.597c5.609,0,10.161-4.552,10.161-10.161     v-155l50.806-28.452v81.839c-4.766,0-8.891,3.302-9.928,7.956l-20.323,91.452c-1.219,5.477,2.235,10.903,7.712,12.122     c0.732,0.163,1.473,0.244,2.215,0.244h60.968c5.609,0,10.161-4.542,10.171-10.151c0-0.742-0.081-1.484-0.244-2.215     l-20.323-91.452c-1.036-4.654-5.162-7.966-9.928-7.956v-93.22l35.443-19.845c4.898-2.744,6.646-8.932,3.902-13.83     c-1.016-1.829-2.581-3.292-4.461-4.197V122.946z M576.686,345.479h-35.625l15.781-71.129h4.065L576.686,345.479z      M560.286,142.416c-0.122,0-0.224-0.091-0.356-0.112l-185.565-19.53c-5.203-15.953-22.355-24.661-38.308-19.459     c-15.953,5.203-24.661,22.355-19.459,38.308s22.355,24.661,38.308,19.459c8.678-2.835,15.618-9.409,18.91-17.925l155.854,16.37     L345.486,262.705L113.494,133.341L345.486,21.435l231.982,111.347L560.286,142.416z M355.648,132.092     c0,5.609-4.552,10.161-10.161,10.161s-10.161-4.552-10.161-10.161c0-5.609,4.552-10.161,10.161-10.161     S355.648,126.472,355.648,132.092z" data-original="#000000" class="" style="fill:#000000" data-old_color="#000000"/>
			<path d="M502.986,406.447c-25.251,0-45.726,20.475-45.726,45.726c0,25.251,20.475,45.726,45.726,45.726     s45.726-20.475,45.726-45.726C548.682,426.921,528.227,406.467,502.986,406.447z M502.986,477.576     c-14.023,0-25.403-11.381-25.403-25.403c0-14.023,11.381-25.403,25.403-25.403c14.023,0,25.403,11.37,25.403,25.403     S517.019,477.576,502.986,477.576z" data-original="#000000" class="" style="fill:#000000" data-old_color="#000000"/>
			<path d="M315.003,534.336v-87.245c-0.091-58.245-35.636-110.565-89.755-132.097l27.639-53.133     c2.408-4.654,0.874-10.375-3.526-13.21l-10.161-6.513c-15.648-9.928-35.311-11.106-52.036-3.13     c-9.115,4.329-19.703,4.329-28.817,0c-16.725-7.997-36.388-6.818-52.036,3.13l-10.161,6.513c-4.4,2.835-5.934,8.556-3.526,13.21     l27.618,53.133c-54.119,21.532-89.663,73.852-89.755,132.097v87.245L9.29,555.533c-12.387,12.387-12.387,32.465,0,44.852     c5.944,5.944,14.012,9.287,22.426,9.287h282.057c17.518,0,31.713-14.195,31.713-31.713c0-8.414-3.343-16.482-9.287-22.426     L315.003,534.336z M114.917,260.723l2.357-1.514c9.704-6.148,21.887-6.869,32.252-1.92c14.693,6.991,31.744,6.991,46.437,0     c10.365-4.949,22.548-4.227,32.252,1.92l2.357,1.514l-25.007,48.083c-21.562-5.294-44.08-5.294-65.642,0L114.917,260.723z      M313.773,589.35H31.716c-6.29,0-11.391-5.101-11.391-11.391c0-3.028,1.199-5.924,3.343-8.068l24.174-24.174     c1.9-1.9,2.967-4.481,2.967-7.174v-91.452c0-67.339,54.597-121.935,121.935-121.935S294.68,379.753,294.68,447.092v91.452     c0,2.693,1.067,5.284,2.977,7.184l24.174,24.174c4.451,4.451,4.451,11.655,0.01,16.106     C319.697,588.151,316.801,589.35,313.773,589.35z" data-original="#000000" class="" style="fill:#000000" data-old_color="#000000"/>
			<path d="M182.906,447.092h-20.323c-5.609,0-10.161-4.552-10.161-10.161s4.552-10.161,10.161-10.161h40.645v-20.323h-20.323     v-20.323h-20.323v20.323c-16.837,0-30.484,13.647-30.484,30.484s13.647,30.484,30.484,30.484h20.323     c5.609,0,10.161,4.552,10.161,10.161c0,5.609-4.552,10.161-10.161,10.161h-40.645v20.323h20.323v20.323h20.323v-20.323     c16.837,0,30.484-13.647,30.484-30.484C213.39,460.738,199.743,447.092,182.906,447.092z" data-original="#000000" class="" style="fill:#000000" data-old_color="#000000"/>
		</g>
	</g>
</g></g> </svg>
