<?xml version="1.0"?>
<svg xmlns="http://www.w3.org/2000/svg" height="512px" viewBox="0 0 480 480.00012" width="512px" class=""><g><path d="m368 312h-32v-32h32zm0 0" fill="#e0e0de" data-original="#E0E0DE"/><path d="m304 312h96v96h-96zm0 0" fill="#d6d6d4" data-original="#D6D6D4"/><path d="m328 336h16v24h-16zm0 0" fill="#b0b0ae" data-original="#B0B0AE"/><path d="m360 336h16v24h-16zm0 0" fill="#b0b0ae" data-original="#B0B0AE"/><path d="m328 376h16v32h-16zm0 0" fill="#b0b0ae" data-original="#B0B0AE"/><path d="m360 376h16v32h-16zm0 0" fill="#b0b0ae" data-original="#B0B0AE"/><path d="m304 304h112v16h-112zm0 0" fill="#ebebe9" data-original="#EBEBE9"/><path d="m400 472h-96v-64h96zm0 0" fill="#d6d6d4" data-original="#D6D6D4"/><path d="m392 472h-88v-64h56zm0 0" fill="#c7c7c5" data-original="#C7C7C5"/><path d="m372 432 8 16h-76v-16zm0 0" fill="#e0e0de" data-original="#E0E0DE"/><path d="m400 416h-96v-16h96zm0 0" fill="#ebebe9" data-original="#EBEBE9"/><path d="m304 464h112v16h-112zm0 0" fill="#e0e0de" data-original="#E0E0DE"/><path d="m112 408h192v72h-192zm0 0" fill="#e0e0de" data-original="#E0E0DE"/><path d="m112 360h192v48h-192zm0 0" fill="#e0e0de" data-original="#E0E0DE"/><path d="m112 280.496094h192v79.503906h-192zm0 0" fill="#e0e0de" data-original="#E0E0DE"/><g fill="#b0b0ae"><path d="m200 384h16v24h-16zm0 0" data-original="#B0B0AE"/><path d="m168 384h16v24h-16zm0 0" data-original="#B0B0AE"/><path d="m136 384h16v24h-16zm0 0" data-original="#B0B0AE"/><path d="m232 384h16v24h-16zm0 0" data-original="#B0B0AE"/><path d="m264 384h16v24h-16zm0 0" data-original="#B0B0AE"/><path d="m200 440h16v40h-16zm0 0" data-original="#B0B0AE"/><path d="m168 440h16v40h-16zm0 0" data-original="#B0B0AE"/><path d="m136 440h16v40h-16zm0 0" data-original="#B0B0AE"/><path d="m232 440h16v40h-16zm0 0" data-original="#B0B0AE"/><path d="m264 440h16v40h-16zm0 0" data-original="#B0B0AE"/></g><path d="m144 232.496094h128v48h-128zm0 0" fill="#e0e0de" data-original="#E0E0DE"/><path d="m200 232.503906h16v48h-16zm0 0" fill="#b0b0ae" data-original="#B0B0AE"/><path d="m232 232.503906h16v48h-16zm0 0" fill="#b0b0ae" data-original="#B0B0AE"/><path d="m168 232.503906h16v48h-16zm0 0" fill="#b0b0ae" data-original="#B0B0AE"/><path d="m272 232h-128v-8c0-36.847656 27.4375-67.929688 64-72.496094 36.5625 4.566406 64 35.648438 64 72.496094zm0 0" fill="#c7c7c5" data-original="#C7C7C5"/><path d="m200 208.503906h16v24h-16zm0 0" fill="#b0b0ae" data-original="#B0B0AE"/><path d="m168 208.503906h16v24h-16zm0 0" fill="#b0b0ae" data-original="#B0B0AE"/><path d="m232 208.503906h16v24h-16zm0 0" fill="#b0b0ae" data-original="#B0B0AE"/><path d="m192 112h32v64h-32zm0 0" fill="#c7c7c5" data-original="#C7C7C5"/><path d="m200 80h16v32h-16zm0 0" fill="#e0e0de" data-original="#E0E0DE"/><path d="m200 312.503906h16v47.503906h-16zm0 0" fill="#b0b0ae" data-original="#B0B0AE"/><path d="m168 312.503906h16v47.503906h-16zm0 0" fill="#b0b0ae" data-original="#B0B0AE"/><path d="m136 312.503906h16v47.503906h-16zm0 0" fill="#b0b0ae" data-original="#B0B0AE"/><path d="m232 312.503906h16v47.503906h-16zm0 0" fill="#b0b0ae" data-original="#B0B0AE"/><path d="m264 312.503906h16v47.503906h-16zm0 0" fill="#b0b0ae" data-original="#B0B0AE"/><path d="m304 312.496094h-192v-32h192zm0 0" fill="#d6d6d4" data-original="#D6D6D4"/><path d="m144 224h128v16.503906h-128zm0 0" fill="#e0e0de" data-original="#E0E0DE"/><path d="m112 352h192v16h-192zm0 0" fill="#d6d6d4" data-original="#D6D6D4"/><path d="m112 408h192v16h-192zm0 0" fill="#d6d6d4" data-original="#D6D6D4"/><path d="m48 280h32v32h-32zm0 0" fill="#e0e0de" data-original="#E0E0DE"/><path d="m16 312h96v96h-96zm0 0" fill="#d6d6d4" data-original="#D6D6D4"/><path d="m72 336h16v24h-16zm0 0" fill="#b0b0ae" data-original="#B0B0AE"/><path d="m40 336h16v24h-16zm0 0" fill="#b0b0ae" data-original="#B0B0AE"/><path d="m72 376h16v32h-16zm0 0" fill="#b0b0ae" data-original="#B0B0AE"/><path d="m40 376h16v32h-16zm0 0" fill="#b0b0ae" data-original="#B0B0AE"/><path d="m0 304h112v16h-112zm0 0" fill="#ebebe9" data-original="#EBEBE9"/><path d="m16 408h96v64h-96zm0 0" fill="#d6d6d4" data-original="#D6D6D4"/><path d="m24 472h88v-64h-56zm0 0" fill="#c7c7c5" data-original="#C7C7C5"/><path d="m44 432-8 16h76v-16zm0 0" fill="#e0e0de" data-original="#E0E0DE"/><path d="m16 400h96v16h-96zm0 0" fill="#ebebe9" data-original="#EBEBE9"/><path d="m0 464h112v16h-112zm0 0" fill="#e0e0de" data-original="#E0E0DE"/><path d="m304 320v24.601562c7.390625 4.964844 15.480469 8.808594 24 11.398438v-20h16v23.34375c3.488281.421875 7 .640625 10.511719.65625h5.488281v-24h16v24h5.488281c6.21875 0 12.421875-.640625 18.511719-1.910156v-38.089844zm0 0" fill="#c7c7c5" data-original="#C7C7C5"/><path d="m344 336h-16v20c5.222656 1.585938 10.578125 2.691406 16 3.3125zm0 0" fill="#a3a3a1" data-original="#A3A3A1"/><path d="m360 336h16v24h-16zm0 0" fill="#a3a3a1" data-original="#A3A3A1"/><path d="m280 312.496094v8.304687c6.445312 9.351563 14.585938 17.417969 24 23.773438v-32.078125zm0 0" fill="#d6d6d4" data-original="#D6D6D4"/><path d="m408 152h-96c-8.835938 0-16-7.164062-16-16v-64l-7.800781-3.902344c-5.023438-2.511718-8.199219-7.648437-8.199219-13.265625 0-8.191406 6.640625-14.832031 14.832031-14.832031h113.167969zm0 0" fill="#fec9a3" data-original="#FEC9A3"/><path d="m408 40h64v112h-64zm0 0" fill="#348fd9" data-original="#348FD9"/><path d="m408 112h64v40h-64zm0 0" fill="#3086cd" data-original="#3086CD"/><path d="m432 112h16v16h-16zm0 0" fill="#2a71ad" data-original="#2A71AD"/><path d="m296 110.398438v25.601562c0 8.835938 7.164062 16 16 16h96v-53.113281c-36.425781 13.410156-79.632812 13.953125-112 11.511719zm0 0" fill="#fec093" data-original="#FEC093"/><path d="m384 40h-64l-16-32h96zm0 0" fill="#ffb531" data-original="#FFB531" class=""/><path d="m365.488281 344h-26.976562c-49.988281.003906-90.515625-40.523438-90.511719-90.511719 0-24.003906 9.539062-47.027343 26.511719-64l37.488281-37.488281h80l37.488281 37.488281c16.972657 16.972657 26.511719 39.996094 26.511719 64 .003906 49.988281-40.523438 90.515625-90.511719 90.511719zm0 0" fill="#ffb531" data-original="#FFB531" class=""/><path d="m429.488281 189.488281-9.152343-9.152343c-35.664063 78.878906-105.230469 113.601562-153.246094 128.617187 17.09375 22.109375 43.472656 35.054687 71.421875 35.046875h26.976562c36.609375 0 69.609375-22.054688 83.617188-55.875 14.011719-33.820312 6.265625-72.75-19.617188-98.636719zm0 0" fill="#ffa912" data-original="#FFA912" class=""/><path d="m360 240h-16c-4.417969 0-8-3.582031-8-8s3.582031-8 8-8h32v-16h-16v-16h-16v16c-13.253906 0-24 10.746094-24 24s10.746094 24 24 24h16c4.417969 0 8 3.582031 8 8s-3.582031 8-8 8h-32v16h16v16h16v-16c13.253906 0 24-10.746094 24-24s-10.746094-24-24-24zm0 0" fill="#f98500" data-original="#F98500"/><path d="m408 168-16-16h-80l-16 16zm0 0" fill="#ffa912" data-original="#FFA912" class=""/><path d="m72 336h16v24h-16zm0 0" data-original="#000000" class="active-path"/><path d="m40 336h16v24h-16zm0 0" data-original="#000000" class="active-path"/><path d="m408 408v-48h-16v40h-16v-24h-16v24h-16v-24h-16v24h-16v-40c0-4.417969-3.582031-8-8-8h-24v-8h-16v8h-16v-24h-16v24h-16v-31.9375l16-.0625v-16l-112 .449219v-16l24-.105469 64-.320312h8v-47.933594l16.046875-.089844-.09375-16-15.953125.089844v-15.59375h-16v15.679687l-16 .082031v-15.761718h-16v15.847656l-16 .089844c.042969-27.3125 17.144531-51.6875 42.816406-61.015625 4.257813-1.597657 8.679688-2.71875 13.183594-3.347657 4.546875.636719 9.007812 1.769532 13.304688 3.386719 10.167968 3.660157 19.238281 9.84375 26.359374 17.976563l12-10.554688c-7.648437-8.65625-17.085937-15.550781-27.664062-20.199218v-38.679688c0-4.417969-3.582031-8-8-8h-8v-24h-16v24h-8c-4.417969 0-8 3.582031-8 8v38.542969c-29.164062 13.042969-47.957031 41.988281-48 73.9375v47.878906l-24 .121094c-.453125.050781-.898438.140625-1.335938.273437-1.398437.050782-2.722656.648438-3.6875 1.664063-.183593.15625-.433593.238281-.609374.414062-.722657.726563-1.296876 1.585938-1.695313 2.527344-.429687.984375-.65625 2.046875-.671875 3.121094v23.519531h-16v-24c0-4.417969-3.582031-8-8-8h-32c-4.417969 0-8 3.582031-8 8v24h-40v16h8v144h-8v16h416v-16h-8zm-192-288v25.351562c-2.289062-.496093-4.574219-.976562-6.984375-1.289062-.675781-.078125-1.355469-.078125-2.03125 0-2.398437.3125-4.695313.800781-6.984375 1.289062v-25.351562zm176 334.113281-19.054688-38.113281h19.054688zm-36.945312-38.113281 8 16h-51.054688v-16zm-59.054688-16h-16v-16h-16v16h-16v-16h-16v16h-16v-16h-16v16h-16v-16h-16v16h-16v-16h-16v16h-16v-32h176zm-192 32h-51.054688l8-16h43.054688zm-80-16h19.054688l-19.054688 38.113281zm128-64v-31.679688l16-.0625v31.742188zm48 0h-16v-31.808594l16-.0625zm-64-31.617188v31.617188h-16v-31.550781zm64-79.902343v31.558593l-16 .082032v-31.640625zm-48 0h16v31.71875l-16 .082031zm-96 47.519531h16v16h-16zm-32 32h80v80h-16v-24h-16v24h-16v-24h-16v24h-16zm20.945312 128h59.054688v16h-67.054688zm75.054688-32h176v48h-16v-24h-16v24h-16v-24h-16v24h-16v-24h-16v24h-16v-24h-16v24h-16v-24h-16v24h-16zm192 48v-16h59.054688l8 16zm0 0" data-original="#000000" class="active-path"/><path d="m396.945312 32 10.253907-20.425781c1.242187-2.484375 1.105469-5.4375-.363281-7.800781-1.46875-2.359376-4.054688-3.789063-6.835938-3.773438h-96c-2.78125-.015625-5.367188 1.414062-6.835938 3.773438-1.46875 2.363281-1.605468 5.316406-.363281 7.800781l10.253907 20.425781h-12.222657c-10.589843 0-19.792969 7.28125-22.222656 17.589844-2.433594 10.304687 2.542969 20.933594 12.015625 25.667968l3.375 1.6875v59.054688c.019531 7.515625 3.574219 14.585938 9.601562 19.082031l-28.761718 28.75c-28.171875 28.175781-36.601563 70.546875-21.351563 107.359375 15.25 36.808594 51.171875 60.808594 91.015625 60.808594h26.992188c39.84375 0 75.761718-24.003906 91.007812-60.8125 15.246094-36.8125 6.820313-79.179688-21.351562-107.355469l-23.839844-23.832031h68.6875v-16h-64v-96h64v-16zm-80-16h70.109376l-8 16h-54.109376zm-25.160156 44.945312c-2.835937-1.417968-4.324218-4.59375-3.597656-7.679687.726562-3.082031 3.476562-5.261719 6.644531-5.265625h105.167969v96h-88c-4.417969 0-8-3.582031-8-8v-64c0-3.03125-1.710938-5.804688-4.425781-7.160156zm156.214844 192.550782c-.054688 45.542968-36.960938 82.449218-82.503906 82.503906h-26.992188c-33.371094 0-63.457031-20.101562-76.226562-50.933594-12.769532-30.832031-5.707032-66.320312 17.890625-89.914062l35.144531-35.152344h73.375l35.144531 35.152344c15.527344 15.4375 24.230469 36.449218 24.167969 58.34375zm0 0" data-original="#000000" class="active-path"/><path d="m432 112h16v16h-16zm0 0" data-original="#000000" class="active-path"/><path d="m360 240h-16c-4.417969 0-8-3.582031-8-8s3.582031-8 8-8h32v-16h-16v-16h-16v16c-13.253906 0-24 10.746094-24 24s10.746094 24 24 24h16c4.417969 0 8 3.582031 8 8s-3.582031 8-8 8h-32v16h16v16h16v-16c13.253906 0 24-10.746094 24-24s-10.746094-24-24-24zm0 0" data-original="#000000" class="active-path"/></g> </svg>
